<svg id="Layer_1" data-name="Layer 1" xmlns="http://www.w3.org/2000/svg" viewBox="0 0 33 31"><defs><style>.cls-1{fill:#e4e4e4;}</style></defs><rect y="17" width="4" height="4"/><rect x="5" y="17" width="4" height="4"/><rect x="10" y="17" width="4" height="4"/><rect y="22" width="4" height="4"/><rect x="5" y="22" width="4" height="4"/><rect x="10" y="22" width="4" height="4"/><rect y="27" width="4" height="4"/><rect x="5" y="27" width="4" height="4"/><rect x="10" y="27" width="4" height="4"/><rect x="17" y="17" width="16" height="4"/><rect x="17" y="22" width="16" height="4"/><rect x="17" y="27" width="16" height="4"/><rect class="cls-1" width="4" height="4"/><rect class="cls-1" x="5" width="4" height="4"/><rect class="cls-1" x="10" width="4" height="4"/><rect class="cls-1" y="5" width="4" height="4"/><rect class="cls-1" x="5" y="5" width="4" height="4"/><rect class="cls-1" x="10" y="5" width="4" height="4"/><rect class="cls-1" y="10" width="4" height="4"/><rect class="cls-1" x="5" y="10" width="4" height="4"/><rect class="cls-1" x="10" y="10" width="4" height="4"/><rect class="cls-1" x="17" width="16" height="4"/><rect class="cls-1" x="17" y="5" width="16" height="4"/><rect class="cls-1" x="17" y="10" width="16" height="4"/></svg>